<?xml version="1.0" encoding="UTF-8" standalone="no"?>
<!-- Created with Inkscape (http://www.inkscape.org/) -->

<svg
   xmlns:dc="http://purl.org/dc/elements/1.1/"
   xmlns:cc="http://creativecommons.org/ns#"
   xmlns:rdf="http://www.w3.org/1999/02/22-rdf-syntax-ns#"
   xmlns:svg="http://www.w3.org/2000/svg"
   xmlns="http://www.w3.org/2000/svg"
   xmlns:sodipodi="http://sodipodi.sourceforge.net/DTD/sodipodi-0.dtd"
   xmlns:inkscape="http://www.inkscape.org/namespaces/inkscape"
   version="1.1"
   id="svg3767"
   width="24"
   height="24"
   viewBox="0 0 24 24"
   sodipodi:docname="canada.svg"
   inkscape:version="0.92.4 (f8dce91, 2019-08-02)">
  <metadata
     id="metadata3773">
    <rdf:RDF>
      <cc:Work
         rdf:about="">
        <dc:format>image/svg+xml</dc:format>
        <dc:type
           rdf:resource="http://purl.org/dc/dcmitype/StillImage" />
        <dc:title></dc:title>
      </cc:Work>
    </rdf:RDF>
  </metadata>
  <defs
     id="defs3771" />
  <sodipodi:namedview
     pagecolor="#ffffff"
     bordercolor="#666666"
     borderopacity="1"
     objecttolerance="10"
     gridtolerance="10"
     guidetolerance="10"
     inkscape:pageopacity="0"
     inkscape:pageshadow="2"
     inkscape:window-width="1685"
     inkscape:window-height="1376"
     id="namedview3769"
     showgrid="false"
     inkscape:zoom="31.946667"
     inkscape:cx="6.5942433"
     inkscape:cy="3.8775529"
     inkscape:window-x="70"
     inkscape:window-y="27"
     inkscape:window-maximized="0"
     inkscape:current-layer="svg3767" />
  <path
     style="fill:none;stroke:#000000;stroke-width:1.60000002;stroke-linecap:round;stroke-linejoin:miter;stroke-miterlimit:4;stroke-dasharray:none;stroke-opacity:1"
     d="m 11.236199,22.020019 h 1.355197 l -0.524843,-4.7315 c 1.606452,-0.166161 3.63274,0.291726 5.171234,0.693571 l -0.746742,-2.046622 4.859715,-2.916201 c -0.753784,-1.490818 -0.43951,-2.352204 0,-3.871989 C 19.941685,9.226622 19.003264,8.7867201 17.810657,8.1516244 L 15.052878,9.6849738 14.638023,9.4913742 14.618933,4.8589311 C 13.098444,4.3134698 12.520527,2.9879542 11.899974,1.7750539 11.134956,3.3903027 10.670143,4.3565173 9.0558081,4.9215348 L 9.1619248,9.4913742 8.7470688,9.6849738 5.8953839,8.1516244 C 4.9275908,8.9326002 3.8705646,9.1853398 2.6996045,9.4916019 2.9332344,10.770146 2.7022668,11.8119 2.3552801,13.019267 L 7.3089019,15.935468 6.56216,17.98209 c 1.5788322,-0.399973 3.447287,-0.784122 5.077327,-0.693571 l -0.430936,4.7315 h 1.355197"
     id="path3802-6"
     inkscape:connector-curvature="0"
     sodipodi:nodetypes="ccccccccccccccccccccccc" />
</svg>
